<svg xmlns="http://www.w3.org/2000/svg" xmlns:xlink="http://www.w3.org/1999/xlink" width="200" height="200" viewBox="0 0 200 200">
  <defs>
    <clipPath id="clip-App-netex-default">
      <rect width="200" height="200"/>
    </clipPath>
  </defs>
  <g id="App-netex-default" clip-path="url(#clip-App-netex-default)">
    <g id="Grupo_22572" data-name="Grupo 22572">
      <rect id="Rectángulo_8929" data-name="Rectángulo 8929" width="200" height="200" fill="#999"/>
      <path id="Trazado_17680" data-name="Trazado 17680" d="M147.914,72.917h0l-1.3-.823V70.586A22.618,22.618,0,0,0,129.88,49.4a23.292,23.292,0,0,0-5.76-.754h-1.851v-.069L121.514,47a38.917,38.917,0,0,0-67.337-5.211l-.823,1.234a10.322,10.322,0,0,0-.686,1.166,2.145,2.145,0,0,0-.343.686,11.1,11.1,0,0,1-.686,1.234,6.366,6.366,0,0,0-.343.686l-.617,1.234v.069l-1.371.274a29.457,29.457,0,0,0-23.177,21.6,29.861,29.861,0,0,0,21.051,36.549l12.48,3.36.617,5.006h0l2.88,23.451c-5.486-1.577-10.971-3.291-16.389-5.006a38.611,38.611,0,0,0,65.006,17.211c-5.486-1.166-10.9-2.4-16.32-3.7l7.406-9.874h0l2.606-3.429h0l1.44-1.92.069-.137h0l5.623-7.543,11.794,3.154a30.229,30.229,0,0,0,22.971-2.949,29.144,29.144,0,0,0,13.92-18.1A30.267,30.267,0,0,0,147.914,72.917ZM75.777,141.832c-1.851-.48-3.7-1.029-5.554-1.509l-2.88-22.491h0l-.754-6.1,16.046,4.32-1.92,7.337h0Zm25.44-14.126-2.4,3.154h0l-1.166,1.509-.96,1.3h0L88.12,145.123l-5.554-1.44L87.3,126.06h0l2.194-8.229,15.977,4.251-4.251,5.623Zm41.349-28.594a17.8,17.8,0,0,1-21.874,12.343l-22.423-5.966L73.994,98.974,57.126,94.449A17.541,17.541,0,0,1,44.714,72.917h0C47.594,62.083,55.96,58.449,63.229,59.34a.067.067,0,0,1,.069-.069l.206-.617c0-.069.069-.137.069-.206.069-.137.069-.274.137-.411s.137-.343.206-.48c.137-.274.206-.549.343-.823l.069-.137c0-.069,0-.069.069-.137l.206-.48c.069-.137.069-.206.137-.343s.137-.343.206-.48c0-.069.069-.069.069-.137l.069-.069.137-.274.206-.411a.067.067,0,0,1,.069-.069l.137-.274.137-.206a.239.239,0,0,1,.069-.137h0a.947.947,0,0,1,.206-.274,1.434,1.434,0,0,1,.274-.411c.069-.137.206-.343.274-.48q.823-1.234,1.646-2.263c.137-.137.206-.274.343-.411.48-.549.891-1.029,1.371-1.577.137-.137.206-.274.343-.343a22.689,22.689,0,0,1,3.429-2.811l.411-.274.137-.069c.137-.069.274-.206.411-.274a2.779,2.779,0,0,1,.617-.343,16.4,16.4,0,0,1,2.949-1.371l.343-.137c.206-.069.411-.137.686-.206a5.21,5.21,0,0,0,.754-.274l.411-.137c.274-.069.617-.137.891-.206.823-.206,1.577-.343,2.4-.48.206,0,.411-.069.617-.069.48-.069.96-.069,1.509-.137h.891a26.559,26.559,0,0,1,7.337.891,25.048,25.048,0,0,1,15.36,11.04,25.827,25.827,0,0,1,2.469,5.211,1.272,1.272,0,0,1,.137.48c0,.069.069.137.069.206a1.158,1.158,0,0,0,.137.343,2,2,0,0,1,.137.617.618.618,0,0,1,.069.343,1.422,1.422,0,0,0,.137.411.518.518,0,0,1,.069.274v.137a12.64,12.64,0,0,1,7.474-.343,14.668,14.668,0,0,1,9.6,8.366,12.01,12.01,0,0,1,.343,7.749c0,.069,0,.137-.069.137.069,0,.137.069.206.069,9.6,2.469,15.017,12.206,12.343,22.149Z" transform="translate(6.395 6.511)" fill="#ccc"/>
    </g>
  </g>
</svg>
